<?xml version="1.0" encoding="UTF-8" standalone="no"?>
<svg
   xmlns:dc="http://purl.org/dc/elements/1.1/"
   xmlns:cc="http://creativecommons.org/ns#"
   xmlns:rdf="http://www.w3.org/1999/02/22-rdf-syntax-ns#"
   xmlns:svg="http://www.w3.org/2000/svg"
   xmlns="http://www.w3.org/2000/svg"
   id="svg108"
   version="1.1"
   height="400"
   width="400">
  <metadata
     id="metadata114">
    <rdf:RDF>
      <cc:Work
         rdf:about="">
        <dc:format>image/svg+xml</dc:format>
        <dc:type
           rdf:resource="http://purl.org/dc/dcmitype/StillImage" />
        <dc:title></dc:title>
      </cc:Work>
    </rdf:RDF>
  </metadata>
  <defs
     id="defs112" />
  <!-- Created with Method Draw - http://github.com/duopixel/Method-Draw/ -->
  <g
     id="g96">
    <title
       id="title90">background</title>
    <rect
       x="-1"
       y="-1"
       width="402"
       height="402"
       id="canvas_background"
       fill="#fff" />
    <g
       id="canvasGrid"
       width="100%"
       height="100%"
       x="0"
       y="0"
       overflow="visible"
       display="none">
      <rect
         id="rect93"
         width="100%"
         height="100%"
         x="0"
         y="0"
         stroke-width="0"
         fill="url(#gridpattern)" />
    </g>
  </g>
  <g
     id="g106">
    <title
       id="title98">Layer 1</title>
    <rect
       fill="#333333"
       stroke-width="1.5"
       x="94.00001"
       y="376.4375"
       width="208.999976"
       height="16"
       id="svg_1"
       rx="19"
       stroke="#333333" />
    <rect
       fill="#333333"
       stroke-width="1.5"
       x="122.499991"
       y="299.9375"
       width="166.000011"
       height="16"
       id="svg_2"
       rx="19"
       transform="rotate(90 205.49999999999997,307.93750000000006) "
       stroke="#333333" />
    <rect
       fill="#333333"
       stroke-width="1.5"
       x="5.934856"
       y="214.878908"
       width="372.081034"
       height="16"
       id="svg_3"
       rx="19"
       stroke="#333333"
       transform="rotate(20 191.97537231445284,222.87890625000003) " />
    <path
       fill="#007fff"
       stroke="#007fff"
       stroke-width="1.5"
       d="m256.015009,246.045313l20.999999,-95.999992l70.000002,0l20.999992,95.999992l-111.999993,0z"
       id="svg_14"
       transform="rotate(20 312.0150146484375,198.0453186035156) " />
    <path
       fill="#007fff"
       stroke="#007fff"
       stroke-width="1.5"
       d="m131.999927,54.400032c-35.346567,0 -64.000013,28.65307 -64.000013,63.999998c0,35.346186 28.653446,64.000019 64.000013,64.000019c35.346977,0 64.000013,-28.653833 64.000013,-64.000019c0,-35.346928 -28.653036,-63.999998 -64.000013,-63.999998zm5.526509,98.698611l0,9.014565l-8.621964,0l0,-8.913c-14.148457,-1.937608 -20.348528,-13.562626 -20.348528,-13.562626l8.81592,-7.366698c0,0 5.618904,9.78896 15.790928,9.78896c5.618454,0 9.8813,-3.00757 9.8813,-8.142711c0,-12.016339 -32.361126,-10.559213 -32.361126,-32.844984c0,-9.688214 7.653127,-16.667712 18.216918,-18.313966l0,-9.013664l8.622322,0l0,9.008677c7.362556,0.969221 16.081473,4.844478 16.081473,13.17966l0,6.394041l-11.431805,0l0,-3.09994c0,-3.196693 -4.073089,-5.32838 -8.626111,-5.32838c-5.812486,0 -10.075353,2.906118 -10.075353,6.97533c0,12.302875 32.361115,9.300184 32.361115,32.651852c0.004623,9.594886 -7.164274,17.926669 -18.305089,19.572887l0,-0.000005z"
       id="svg_15"
       transform="rotate(20 131.9999389648437,118.4000473022461) " />
    <path
       fill="#007fff"
       stroke="#007fff"
       stroke-width="0.5"
       d="m300.564998,136.240312l0,0c0,-9.941124 15.893891,-18 35.499995,-18l0,0c9.41518,0 18.444747,1.896422 25.102282,5.272077c6.657543,3.375656 10.397713,7.954025 10.397713,12.727923l0,0c0,9.941123 -15.893891,18 -35.499995,18l0,0c-19.606102,0 -35.499995,-8.058877 -35.499995,-18zm17.749998,0l0,0c0,4.970561 7.94695,9 17.749998,9c9.803054,0 17.749998,-4.029439 17.749998,-9c0,-4.970561 -7.946948,-9 -17.749998,-9l0,0c-9.803047,0 -17.749998,4.02944 -17.749998,9z"
       id="svg_16"
       transform="rotate(20 336.06500244140636,136.24031066894537) " />
  </g>
</svg>
